<svg xmlns="http://www.w3.org/2000/svg" xmlns:xlink="http://www.w3.org/1999/xlink" id="processonSvg1000" viewBox="107.0 -86.3196372480715 1132.0 570.3196372480716" width="1132.0" height="570.3196372480716"><defs id="ProcessOnDefs1001"/><g id="ProcessOnG1002"><path id="ProcessOnPath1003" d="M107.0 -86.3196372480715H1239.0V484.00000000000006H107.0V-86.3196372480715Z" fill="none"/><g id="ProcessOnG1004"><g id="ProcessOnG1005" transform="matrix(1.0,0.0,0.0,1.0,894.014866960347,145.0)" opacity="1.0"><path id="ProcessOnPath1006" d="M20.7 0.0L126.66666666666667 0.0C141.0909090909091 0.0 141.0909090909091 68.0 126.66666666666667 68.0L20.7 68.0C-6.9 68.0 -6.9 0.0 20.7 0.0ZM126.66666666666667 0.0C112.5 0.0 112.5 68.0 126.66666666666667 68.0C112.5 68.0 112.5 0.0 126.66666666666667 0.0" stroke="#323232" stroke-width="2.0" stroke-dasharray="none" opacity="1.0" fill="#00cc00"/><g id="ProcessOnG1007" transform="matrix(1.0,0.0,0.0,1.0,0.0,17.75)"><text id="ProcessOnText1008" fill="#000000" font-size="13" x="54.2" y="13.325" font-family="微软雅黑" font-weight="normal" font-style="normal" text-decoration="none" family="微软雅黑" text-anchor="middle" size="13">ELK</text><text id="ProcessOnText1009" fill="#000000" font-size="13" x="54.2" y="29.575" font-family="微软雅黑" font-weight="normal" font-style="normal" text-decoration="none" family="微软雅黑" text-anchor="middle" size="13">监控、查日志</text></g></g><g id="ProcessOnG1010" transform="matrix(1.0,0.0,0.0,1.0,895.514866960347,248.0)" opacity="1.0"><path id="ProcessOnPath1011" d="M0.0 0.0L135.0 0.0L135.0 58.0L0.0 58.0Z" stroke="#323232" stroke-width="2.0" stroke-dasharray="none" opacity="1.0" fill="#00cc00"/><g id="ProcessOnG1012" transform="matrix(1.0,0.0,0.0,1.0,10.0,12.75)"><text id="ProcessOnText1013" fill="#000000" font-size="13" x="56.5" y="13.325" font-family="微软雅黑" font-weight="normal" font-style="normal" text-decoration="none" family="微软雅黑" text-anchor="middle" size="13">报警</text><text id="ProcessOnText1014" fill="#000000" font-size="13" x="56.5" y="29.575" font-family="微软雅黑" font-weight="normal" font-style="normal" text-decoration="none" family="微软雅黑" text-anchor="middle" size="13">邮件、企业微信</text></g></g><g id="ProcessOnG1015" transform="matrix(1.0,0.0,0.0,1.0,897.014866960347,377.0)" opacity="1.0"><path id="ProcessOnPath1016" d="M0.0 0.0L132.0 0.0L132.0 57.0L0.0 57.0Z" stroke="#323232" stroke-width="2.0" stroke-dasharray="none" opacity="1.0" fill="#00cc00"/><g id="ProcessOnG1017" transform="matrix(1.0,0.0,0.0,1.0,10.0,20.375)"><text id="ProcessOnText1018" fill="#000000" font-size="13" x="55.0" y="13.325" font-family="微软雅黑" font-weight="normal" font-style="normal" text-decoration="none" family="微软雅黑" text-anchor="middle" size="13">自定义插件</text></g></g><g id="ProcessOnG1019" transform="matrix(1.0,0.0,0.0,1.0,127.0,80.0)" opacity="1.0"><path id="ProcessOnPath1020" d="M0.0 4.0Q0.0 0.0 4.0 0.0L115.0 0.0Q119.0 0.0 119.0 4.0L119.0 26.0Q119.0 30.0 115.0 30.0L4.0 30.0Q0.0 30.0 0.0 26.0Z" stroke="#323232" stroke-width="2.0" stroke-dasharray="none" opacity="1.0" fill="#007fff"/><g id="ProcessOnG1021" transform="matrix(1.0,0.0,0.0,1.0,10.0,6.875)"><text id="ProcessOnText1022" fill="#000000" font-size="13" x="48.5" y="13.325" font-family="微软雅黑" font-weight="normal" font-style="normal" text-decoration="none" family="微软雅黑" text-anchor="middle" size="13">collector</text></g></g><g id="ProcessOnG1023" transform="matrix(1.0,0.0,0.0,1.0,817.0,80.0)" opacity="1.0"><path id="ProcessOnPath1024" d="M0.0 4.0Q0.0 0.0 4.0 0.0L115.0 0.0Q119.0 0.0 119.0 4.0L119.0 26.0Q119.0 30.0 115.0 30.0L4.0 30.0Q0.0 30.0 0.0 26.0Z" stroke="#323232" stroke-width="2.0" stroke-dasharray="none" opacity="1.0" fill="#007fff"/><g id="ProcessOnG1025" transform="matrix(1.0,0.0,0.0,1.0,10.0,6.875)"><text id="ProcessOnText1026" fill="#000000" font-size="13" x="48.5" y="13.325" font-family="微软雅黑" font-weight="normal" font-style="normal" text-decoration="none" family="微软雅黑" text-anchor="middle" size="13">analyzer</text></g></g><g id="ProcessOnG1027" transform="matrix(1.0,0.0,0.0,1.0,460.0,80.0)" opacity="1.0"><path id="ProcessOnPath1028" d="M0.0 4.0Q0.0 0.0 4.0 0.0L115.0 0.0Q119.0 0.0 119.0 4.0L119.0 26.0Q119.0 30.0 115.0 30.0L4.0 30.0Q0.0 30.0 0.0 26.0Z" stroke="#323232" stroke-width="2.0" stroke-dasharray="none" opacity="1.0" fill="#007fff"/><g id="ProcessOnG1029" transform="matrix(1.0,0.0,0.0,1.0,10.0,6.875)"><text id="ProcessOnText1030" fill="#000000" font-size="13" x="48.5" y="13.325" font-family="微软雅黑" font-weight="normal" font-style="normal" text-decoration="none" family="微软雅黑" text-anchor="middle" size="13">router</text></g></g><g id="ProcessOnG1031" transform="matrix(1.0,0.0,0.0,1.0,355.0,235.0)" opacity="1.0"><path id="ProcessOnPath1032" d="M0.0 31.0C0.0 -10.333333333333334 139.0 -10.333333333333334 139.0 31.0C139.0 72.33333333333333 0.0 72.33333333333333 0.0 31.0Z" stroke="#323232" stroke-width="2.0" stroke-dasharray="none" opacity="1.0" fill="#ffff00"/><g id="ProcessOnG1033" transform="matrix(1.0,0.0,0.0,1.0,10.0,14.75)"><text id="ProcessOnText1034" fill="#000000" font-size="13" x="58.5" y="13.325" font-family="微软雅黑" font-weight="normal" font-style="normal" text-decoration="none" family="微软雅黑" text-anchor="middle" size="13">logback appender</text><text id="ProcessOnText1035" fill="#000000" font-size="13" x="58.5" y="29.575" font-family="微软雅黑" font-weight="normal" font-style="normal" text-decoration="none" family="微软雅黑" text-anchor="middle" size="13">http推日志</text></g></g><g id="ProcessOnG1036" transform="matrix(1.0,0.0,0.0,1.0,550.0,235.0)" opacity="1.0"><path id="ProcessOnPath1037" d="M0.0 31.0C0.0 -10.333333333333334 139.0 -10.333333333333334 139.0 31.0C139.0 72.33333333333333 0.0 72.33333333333333 0.0 31.0Z" stroke="#323232" stroke-width="2.0" stroke-dasharray="none" opacity="1.0" fill="#ffff00"/><g id="ProcessOnG1038" transform="matrix(1.0,0.0,0.0,1.0,10.0,22.875)"><text id="ProcessOnText1039" fill="#000000" font-size="13" x="58.5" y="13.325" font-family="微软雅黑" font-weight="normal" font-style="normal" text-decoration="none" family="微软雅黑" text-anchor="middle" size="13">mq 主题模式</text></g></g><g id="ProcessOnG1040" transform="matrix(0.9659258262890683,-0.2588190451025207,0.2588190451025207,0.9659258262890683,680.7178631278073,234.26120357996632)" opacity="1.0"><path id="ProcessOnPath1041" d="M0.0 8.36010268603616L206.52734507527117 8.36010268603616L206.52734507527117 0.0L219.19416732684113 12.66682225156994L206.52734507527117 25.33364450313988L206.52734507527117 16.97354181710372L0.0 16.97354181710372L0.0 8.36010268603616Z" stroke="#323232" stroke-width="2.0" stroke-dasharray="none" opacity="1.0" fill="#ffffff"/></g><g id="ProcessOnG1042" transform="matrix(1.0,0.0,0.0,1.0,692.0,255.05646288759996)" opacity="1.0"><path id="ProcessOnPath1043" d="M0.0 9.221367247092013L191.04309840414703 9.221367247092013L191.04309840414703 0.0L205.01486696034704 13.971768556200018L191.04309840414703 27.943537112400037L191.04309840414703 18.722169865308025L0.0 18.722169865308025L0.0 9.221367247092013Z" stroke="#323232" stroke-width="2.0" stroke-dasharray="none" opacity="1.0" fill="#ffffff"/></g><g id="ProcessOnG1044" transform="matrix(0.9396926207859084,0.3420201433256687,-0.3420201433256687,0.9396926207859084,689.9864635951834,271.9019058478161)" opacity="1.0"><path id="ProcessOnPath1045" d="M0.0 9.1984818506422L207.9940626782272 9.1984818506422L207.9940626782272 0.0L221.93115639132145 13.937093713094242L207.9940626782272 27.874187426188485L207.9940626782272 18.675705575546285L0.0 18.675705575546285L0.0 9.1984818506422Z" stroke="#323232" stroke-width="2.0" stroke-dasharray="none" opacity="1.0" fill="#ffffff"/></g><g id="ProcessOnG1046" transform="matrix(1.0,0.0,0.0,1.0,199.0,123.0)" opacity="1.0"><path id="ProcessOnPath1047" d="M0.0 0.0L156.0 0.0L156.0 286.0L0.0 286.0Z" stroke="#323232" stroke-width="2.0" stroke-dasharray="none" opacity="1.0" fill="#ffffff"/><g id="ProcessOnG1048" transform="matrix(1.0,0.0,0.0,1.0,10.0,0.0)"><text id="ProcessOnText1049" fill="#000000" font-size="13" x="0.0" y="13.325" font-family="微软雅黑" font-weight="normal" font-style="normal" text-decoration="none" family="微软雅黑" text-anchor="start" size="13">LogEvent</text><text id="ProcessOnText1050" fill="#000000" font-size="13" x="0.0" y="29.575" font-family="微软雅黑" font-weight="normal" font-style="normal" text-decoration="none" family="微软雅黑" text-anchor="start" size="13">    hostname</text><text id="ProcessOnText1051" fill="#000000" font-size="13" x="0.0" y="45.825" font-family="微软雅黑" font-weight="normal" font-style="normal" text-decoration="none" family="微软雅黑" text-anchor="start" size="13">    departmentName</text><text id="ProcessOnText1052" fill="#000000" font-size="13" x="0.0" y="62.075" font-family="微软雅黑" font-weight="normal" font-style="normal" text-decoration="none" family="微软雅黑" text-anchor="start" size="13">    applicationName</text><text id="ProcessOnText1053" fill="#000000" font-size="13" x="0.0" y="78.325" font-family="微软雅黑" font-weight="normal" font-style="normal" text-decoration="none" family="微软雅黑" text-anchor="start" size="13"></text><text id="ProcessOnText1054" fill="#000000" font-size="13" x="0.0" y="94.575" font-family="微软雅黑" font-weight="normal" font-style="normal" text-decoration="none" family="微软雅黑" text-anchor="start" size="13">    timeStamp</text><text id="ProcessOnText1055" fill="#000000" font-size="13" x="0.0" y="110.825" font-family="微软雅黑" font-weight="normal" font-style="normal" text-decoration="none" family="微软雅黑" text-anchor="start" size="13">    environment</text><text id="ProcessOnText1056" fill="#000000" font-size="13" x="0.0" y="127.075" font-family="微软雅黑" font-weight="normal" font-style="normal" text-decoration="none" family="微软雅黑" text-anchor="start" size="13">    level</text><text id="ProcessOnText1057" fill="#000000" font-size="13" x="0.0" y="143.325" font-family="微软雅黑" font-weight="normal" font-style="normal" text-decoration="none" family="微软雅黑" text-anchor="start" size="13">    formattedMessage</text><text id="ProcessOnText1058" fill="#000000" font-size="13" x="0.0" y="159.575" font-family="微软雅黑" font-weight="normal" font-style="normal" text-decoration="none" family="微软雅黑" text-anchor="start" size="13">    threadName</text><text id="ProcessOnText1059" fill="#000000" font-size="13" x="0.0" y="175.825" font-family="微软雅黑" font-weight="normal" font-style="normal" text-decoration="none" family="微软雅黑" text-anchor="start" size="13">    MDCPropertyMap</text><text id="ProcessOnText1060" fill="#000000" font-size="13" x="0.0" y="192.075" font-family="微软雅黑" font-weight="normal" font-style="normal" text-decoration="none" family="微软雅黑" text-anchor="start" size="13">    throwableContext</text><text id="ProcessOnText1061" fill="#000000" font-size="13" x="0.0" y="208.325" font-family="微软雅黑" font-weight="normal" font-style="normal" text-decoration="none" family="微软雅黑" text-anchor="start" size="13">    loggerName</text><text id="ProcessOnText1062" fill="#000000" font-size="13" x="0.0" y="224.575" font-family="微软雅黑" font-weight="normal" font-style="normal" text-decoration="none" family="微软雅黑" text-anchor="start" size="13"></text><text id="ProcessOnText1063" fill="#000000" font-size="13" x="0.0" y="240.825" font-family="微软雅黑" font-weight="normal" font-style="normal" text-decoration="none" family="微软雅黑" text-anchor="start" size="13"></text></g></g><g id="ProcessOnG1064"><path id="ProcessOnPath1065" d="M520.0 110.0L520.0 286.5L520.0 286.5L520.0 463.0" stroke="#323232" stroke-width="2.0" stroke-dasharray="10.0 4.0" fill="none"/></g><g id="ProcessOnG1066" transform="matrix(1.0,0.0,0.0,1.0,497.0,236.0)" opacity="1.0"><path id="ProcessOnPath1067" d="M0.0 19.8L29.15 19.8L29.15 0.0L53.0 30.0L29.15 60.0L29.15 40.2L0.0 40.2L0.0 19.8Z" stroke="#323232" stroke-width="2.0" stroke-dasharray="none" opacity="1.0" fill="#ffffff"/></g><g id="ProcessOnG1068" transform="matrix(1.0,0.0,0.0,1.0,199.0,335.0)" opacity="1.0"><path id="ProcessOnPath1069" d="M0.0 0.0L156.0 0.0L156.0 74.0L0.0 74.0Z" stroke="#323232" stroke-width="2.0" stroke-dasharray="none" opacity="1.0" fill="#ff0000"/><g id="ProcessOnG1070" transform="matrix(1.0,0.0,0.0,1.0,10.0,4.5)"><text id="ProcessOnText1071" fill="#000000" font-size="13" x="0.0" y="13.325" font-family="微软雅黑" font-weight="normal" font-style="normal" text-decoration="none" family="微软雅黑" text-anchor="start" size="13">    logId</text><text id="ProcessOnText1072" fill="#000000" font-size="13" x="0.0" y="29.575" font-family="微软雅黑" font-weight="normal" font-style="normal" text-decoration="none" family="微软雅黑" text-anchor="start" size="13">    weLogLongs</text><text id="ProcessOnText1073" fill="#000000" font-size="13" x="0.0" y="45.825" font-family="微软雅黑" font-weight="normal" font-style="normal" text-decoration="none" family="微软雅黑" text-anchor="start" size="13">    weLogStrings</text><text id="ProcessOnText1074" fill="#000000" font-size="13" x="0.0" y="62.075" font-family="微软雅黑" font-weight="normal" font-style="normal" text-decoration="none" family="微软雅黑" text-anchor="start" size="13">    weLogBooleans</text></g></g><g id="ProcessOnG1075"><path id="ProcessOnPath1076" d="M188.0 110.0L188.0 286.5L188.0 286.5L188.0 463.0" stroke="#323232" stroke-width="2.0" stroke-dasharray="10.0 4.0" fill="none"/></g><g id="ProcessOnG1077"><path id="ProcessOnPath1078" d="M879.0 111.0L879.0 287.5L879.0 287.5L879.0 464.0" stroke="#323232" stroke-width="2.0" stroke-dasharray="10.0 4.0" fill="none"/></g><g id="ProcessOnG1079" transform="matrix(1.0,0.0,0.0,1.0,1045.0,24.0)" opacity="1.0"><path id="ProcessOnPath1080" d="M0.0 0.0L174.0 0.0L174.0 21.0L0.0 21.0Z" stroke="#323232" stroke-width="2.0" stroke-dasharray="none" opacity="1.0" fill="#3399ff"/><g id="ProcessOnG1081" transform="matrix(1.0,0.0,0.0,1.0,10.0,3.0)"><text id="ProcessOnText1082" fill="#000000" font-size="12" x="76.0" y="12.3" font-family="微软雅黑" font-weight="normal" font-style="normal" text-decoration="none" family="微软雅黑" text-anchor="middle" size="12">角色</text></g></g><g id="ProcessOnG1083" transform="matrix(1.0,0.0,0.0,1.0,1045.0,53.0)" opacity="1.0"><path id="ProcessOnPath1084" d="M0.0 0.0L174.0 0.0L174.0 21.0L0.0 21.0Z" stroke="#323232" stroke-width="2.0" stroke-dasharray="none" opacity="1.0" fill="#ff0000"/><g id="ProcessOnG1085" transform="matrix(1.0,0.0,0.0,1.0,10.0,3.0)"><text id="ProcessOnText1086" fill="#000000" font-size="12" x="76.0" y="12.3" font-family="微软雅黑" font-weight="normal" font-style="normal" text-decoration="none" family="微软雅黑" text-anchor="middle" size="12">微核</text></g></g><g id="ProcessOnG1087" transform="matrix(1.0,0.0,0.0,1.0,1045.0,80.0)" opacity="1.0"><path id="ProcessOnPath1088" d="M0.0 0.0L174.0 0.0L174.0 21.0L0.0 21.0Z" stroke="#323232" stroke-width="2.0" stroke-dasharray="none" opacity="1.0" fill="#00cc00"/><g id="ProcessOnG1089" transform="matrix(1.0,0.0,0.0,1.0,10.0,3.0)"><text id="ProcessOnText1090" fill="#000000" font-size="12" x="76.0" y="12.3" font-family="微软雅黑" font-weight="normal" font-style="normal" text-decoration="none" family="微软雅黑" text-anchor="middle" size="12">结果</text></g></g><g id="ProcessOnG1091" transform="matrix(1.0,0.0,0.0,1.0,1045.0,110.0)" opacity="1.0"><path id="ProcessOnPath1092" d="M0.0 0.0L174.0 0.0L174.0 21.0L0.0 21.0Z" stroke="#323232" stroke-width="2.0" stroke-dasharray="none" opacity="1.0" fill="#ffff00"/><g id="ProcessOnG1093" transform="matrix(1.0,0.0,0.0,1.0,10.0,3.0)"><text id="ProcessOnText1094" fill="#000000" font-size="12" x="76.0" y="12.3" font-family="微软雅黑" font-weight="normal" font-style="normal" text-decoration="none" family="微软雅黑" text-anchor="middle" size="12">性能瓶颈（换tcp、kafka）</text></g></g><g id="ProcessOnG1095" transform="matrix(1.0,0.0,0.0,1.0,288.0,24.0)" opacity="1.0"><path id="ProcessOnPath1096" d="M0.0 0.0L136.0 0.0L136.0 29.0L0.0 29.0Z" stroke="#323232" stroke-width="2.0" stroke-dasharray="none" opacity="1.0" fill="#ff3333"/><g id="ProcessOnG1097" transform="matrix(1.0,0.0,0.0,1.0,10.0,6.375)"><text id="ProcessOnText1098" fill="#000000" font-size="13" x="57.0" y="13.325" font-family="微软雅黑" font-weight="normal" font-style="normal" text-decoration="none" family="微软雅黑" text-anchor="middle" size="13">结构化数据、收集</text></g></g><g id="ProcessOnG1099" transform="matrix(1.0,0.0,0.0,1.0,583.6803627519286,24.0)" opacity="1.0"><path id="ProcessOnPath1100" d="M0.0 0.0L87.0 0.0L87.0 29.0L0.0 29.0Z" stroke="#323232" stroke-width="2.0" stroke-dasharray="none" opacity="1.0" fill="#ff3333"/><g id="ProcessOnG1101" transform="matrix(1.0,0.0,0.0,1.0,10.0,6.375)"><text id="ProcessOnText1102" fill="#000000" font-size="13" x="32.5" y="13.325" font-family="微软雅黑" font-weight="normal" font-style="normal" text-decoration="none" family="微软雅黑" text-anchor="middle" size="13">路由、转发</text></g></g><g id="ProcessOnG1103" transform="matrix(1.0,0.0,0.0,1.0,792.6803627519286,24.0)" opacity="1.0"><path id="ProcessOnPath1104" d="M0.0 0.0L141.0 0.0L141.0 29.0L0.0 29.0Z" stroke="#323232" stroke-width="2.0" stroke-dasharray="none" opacity="1.0" fill="#ff3333"/><g id="ProcessOnG1105" transform="matrix(1.0,0.0,0.0,1.0,10.0,6.375)"><text id="ProcessOnText1106" fill="#000000" font-size="13" x="59.5" y="13.325" font-family="微软雅黑" font-weight="normal" font-style="normal" text-decoration="none" family="微软雅黑" text-anchor="middle" size="13">自定义插件、可编程</text></g></g><g id="ProcessOnG1107" transform="matrix(-1.8369701987210297E-16,-1.0,1.0,-1.8369701987210297E-16,226.360725503857,73.50000000000003)" opacity="1.0"><path id="ProcessOnPath1108" d="M0.0 259.278548992286Q2.0 259.278548992286 2.0 250.278548992286L2.0 138.639274496143Q2.0 129.639274496143 22.0 129.639274496143Q2.0 129.639274496143 2.0 120.639274496143L2.0 9.0Q2.0 0.0 0.0 0.0" stroke="#323232" stroke-width="2.0" stroke-dasharray="none" opacity="1.0" fill="none"/><path id="ProcessOnPath1109" d="M0.0 0.0L20.0 0.0L20.0 259.278548992286L0.0 259.278548992286Z" stroke="none" stroke-width="0.0" stroke-dasharray="none" opacity="1.0" fill="none"/></g><g id="ProcessOnG1110" transform="matrix(-1.8369701987210297E-16,-1.0,1.0,-1.8369701987210297E-16,497.36072550385705,74.23802763231936)" opacity="1.0"><path id="ProcessOnPath1111" d="M0.0 259.639274496143Q2.1476055264638663 259.639274496143 2.1476055264638663 250.639274496143L2.1476055264638663 138.8196372480715Q2.1476055264638663 129.8196372480715 22.0 129.8196372480715Q2.1476055264638663 129.8196372480715 2.1476055264638663 120.8196372480715L2.1476055264638663 9.0Q2.1476055264638663 0.0 0.0 0.0" stroke="#323232" stroke-width="2.0" stroke-dasharray="none" opacity="1.0" fill="none"/><path id="ProcessOnPath1112" d="M0.0 0.0L21.47605526463866 0.0L21.47605526463866 259.639274496143L0.0 259.639274496143Z" stroke="none" stroke-width="0.0" stroke-dasharray="none" opacity="1.0" fill="none"/></g><g id="ProcessOnG1113" transform="matrix(-1.8369701987210297E-16,-1.0,1.0,-1.8369701987210297E-16,765.3607255038571,73.50000000000001)" opacity="1.0"><path id="ProcessOnPath1114" d="M0.0 201.63927449614292Q2.0 201.63927449614292 2.0 192.63927449614292L2.0 109.81963724807146Q2.0 100.81963724807146 22.0 100.81963724807146Q2.0 100.81963724807146 2.0 91.81963724807146L2.0 9.0Q2.0 0.0 0.0 0.0" stroke="#323232" stroke-width="2.0" stroke-dasharray="none" opacity="1.0" fill="none"/><path id="ProcessOnPath1115" d="M0.0 0.0L20.0 0.0L20.0 201.63927449614292L0.0 201.63927449614292Z" stroke="none" stroke-width="0.0" stroke-dasharray="none" opacity="1.0" fill="none"/></g><g id="ProcessOnG1116" transform="matrix(1.0,0.0,0.0,1.0,895.514866960347,328.0)" opacity="1.0"><path id="ProcessOnPath1117" d="M0.0 0.0L135.0 0.0L135.0 39.0L0.0 39.0Z" stroke="none" stroke-width="0.0" stroke-dasharray="none" opacity="1.0" fill="none"/><g id="ProcessOnG1118" transform="matrix(1.0,0.0,0.0,1.0,0.0,11.375)"><text id="ProcessOnText1119" fill="#000000" font-size="13" x="66.5" y="13.325" font-family="微软雅黑" font-weight="normal" font-style="normal" text-decoration="none" family="微软雅黑" text-anchor="middle" size="13">......</text></g></g></g></g></svg>